<svg xmlns="http://www.w3.org/2000/svg" width="32" height="32" viewBox="0 0 32 32" fill="none">
  <path d="M15.9998 2.66669C8.65317 2.66669 2.6665 8.65335 2.6665 16C2.6665 23.3467 8.65317 29.3334 15.9998 29.3334C23.3465 29.3334 29.3332 23.3467 29.3332 16C29.3332 8.65335 23.3465 2.66669 15.9998 2.66669ZM19.7198 16.7067L15.0132 21.4134C14.8132 21.6134 14.5598 21.7067 14.3065 21.7067C14.0532 21.7067 13.7998 21.6134 13.5998 21.4134C13.2132 21.0267 13.2132 20.3867 13.5998 20L17.5998 16L13.5998 12C13.2132 11.6134 13.2132 10.9734 13.5998 10.5867C13.9865 10.2 14.6265 10.2 15.0132 10.5867L19.7198 15.2934C20.1198 15.68 20.1198 16.32 19.7198 16.7067Z" fill="#F6F6F6"/>
</svg>