<svg xmlns="http://www.w3.org/2000/svg" width="32" height="32" viewBox="0 0 32 32" fill="none">
  <path d="M15.9998 2.66669C8.65317 2.66669 2.6665 8.65335 2.6665 16C2.6665 23.3467 8.65317 29.3334 15.9998 29.3334C23.3465 29.3334 29.3332 23.3467 29.3332 16C29.3332 8.65335 23.3465 2.66669 15.9998 2.66669ZM18.3865 20C18.7732 20.3867 18.7732 21.0267 18.3865 21.4134C18.1865 21.6134 17.9332 21.7067 17.6798 21.7067C17.4265 21.7067 17.1732 21.6134 16.9732 21.4134L12.2665 16.7067C11.8798 16.32 11.8798 15.68 12.2665 15.2934L16.9732 10.5867C17.3598 10.2 17.9998 10.2 18.3865 10.5867C18.7732 10.9734 18.7732 11.6134 18.3865 12L14.3865 16L18.3865 20Z" fill="#F6F6F6"/>
</svg>