<svg xmlns="http://www.w3.org/2000/svg" width="32" height="32" viewBox="0 0 32 32" fill="none">
  <path d="M15.9997 24.6667C12.8797 24.6667 10.333 22.12 10.333 19C10.333 18.4533 10.7863 18 11.333 18C11.8797 18 12.333 18.4533 12.333 19C12.333 21.0267 13.973 22.6667 15.9997 22.6667C18.0263 22.6667 19.6663 21.0267 19.6663 19C19.6663 18.4533 20.1197 18 20.6663 18C21.213 18 21.6663 18.4533 21.6663 19C21.6663 22.12 19.1197 24.6667 15.9997 24.6667Z" fill="currentColor"/>
  <path d="M6.91952 8.50671C6.66619 8.50671 6.39952 8.40004 6.21285 8.21338C5.82618 7.82671 5.82618 7.18671 6.21285 6.80004L11.0529 1.96004C11.4395 1.57338 12.0795 1.57338 12.4662 1.96004C12.8529 2.34671 12.8529 2.98671 12.4662 3.37338L7.62618 8.21338C7.42618 8.40004 7.17285 8.50671 6.91952 8.50671Z" fill="currentColor"/>
  <path d="M25.0798 8.50671C24.8265 8.50671 24.5732 8.41338 24.3732 8.21338L19.5332 3.37338C19.1465 2.98671 19.1465 2.34671 19.5332 1.96004C19.9198 1.57338 20.5598 1.57338 20.9465 1.96004L25.7865 6.80004C26.1732 7.18671 26.1732 7.82671 25.7865 8.21338C25.5998 8.40004 25.3332 8.50671 25.0798 8.50671Z" fill="currentColor"/>
  <path d="M26.947 14.1334C26.8537 14.1334 26.7603 14.1334 26.667 14.1334H26.3603H5.33366C4.40033 14.1467 3.33366 14.1467 2.56033 13.3734C1.94699 12.7734 1.66699 11.84 1.66699 10.4667C1.66699 6.80005 4.34699 6.80005 5.62699 6.80005H26.3737C27.6537 6.80005 30.3337 6.80005 30.3337 10.4667C30.3337 11.8534 30.0537 12.7734 29.4403 13.3734C28.747 14.0667 27.8137 14.1334 26.947 14.1334ZM5.62699 12.1334H26.6803C27.2803 12.1467 27.8403 12.1467 28.027 11.96C28.1203 11.8667 28.3203 11.5467 28.3203 10.4667C28.3203 8.96005 27.947 8.80005 26.3603 8.80005H5.62699C4.04033 8.80005 3.66699 8.96005 3.66699 10.4667C3.66699 11.5467 3.88033 11.8667 3.96033 11.96C4.14699 12.1334 4.72033 12.1334 5.30699 12.1334H5.62699Z" fill="currentColor"/>
  <path d="M19.8537 30.3334H11.8137C7.04032 30.3334 5.97366 27.4934 5.56032 25.0267L3.68032 13.4934C3.58699 12.9467 3.96032 12.44 4.50699 12.3467C5.04032 12.2534 5.56032 12.6267 5.65366 13.1734L7.53366 24.6934C7.92032 27.0534 8.72032 28.3334 11.8137 28.3334H19.8537C23.2803 28.3334 23.667 27.1334 24.107 24.8134L26.347 13.1467C26.4537 12.6 26.9737 12.24 27.5203 12.36C28.067 12.4667 28.4137 12.9867 28.307 13.5334L26.067 25.2C25.547 27.9067 24.6803 30.3334 19.8537 30.3334Z" fill="currentColor"/>
</svg>