<svg xmlns="http://www.w3.org/2000/svg" width="32" height="32" viewBox="0 0 32 32" fill="none">
  <path d="M29.3337 12.3334H2.66699C2.12033 12.3334 1.66699 11.88 1.66699 11.3334C1.66699 10.7867 2.12033 10.3334 2.66699 10.3334H29.3337C29.8803 10.3334 30.3337 10.7867 30.3337 11.3334C30.3337 11.88 29.8803 12.3334 29.3337 12.3334Z" fill="currentColor"/>
  <path d="M10.6667 23H8C7.45333 23 7 22.5467 7 22C7 21.4533 7.45333 21 8 21H10.6667C11.2133 21 11.6667 21.4533 11.6667 22C11.6667 22.5467 11.2133 23 10.6667 23Z" fill="currentColor"/>
  <path d="M19.3333 23H14C13.4533 23 13 22.5467 13 22C13 21.4533 13.4533 21 14 21H19.3333C19.88 21 20.3333 21.4533 20.3333 22C20.3333 22.5467 19.88 23 19.3333 23Z" fill="currentColor"/>
  <path d="M23.4137 28.3333H8.58699C3.28033 28.3333 1.66699 26.7333 1.66699 21.48V10.52C1.66699 5.26663 3.28033 3.66663 8.58699 3.66663H23.4003C28.707 3.66663 30.3203 5.26663 30.3203 10.52V21.4666C30.3337 26.7333 28.7203 28.3333 23.4137 28.3333ZM8.58699 5.66663C4.40033 5.66663 3.66699 6.38663 3.66699 10.52V21.4666C3.66699 25.6 4.40033 26.32 8.58699 26.32H23.4003C27.587 26.32 28.3203 25.6 28.3203 21.4666V10.52C28.3203 6.38663 27.587 5.66663 23.4003 5.66663H8.58699Z" fill="currentColor"/>
</svg>