<svg xmlns="http://www.w3.org/2000/svg" width="32" height="32" viewBox="0 0 32 32" fill="none">
  <path d="M15.9993 30.3333C8.09268 30.3333 1.66602 23.9067 1.66602 16C1.66602 8.09334 8.09268 1.66667 15.9993 1.66667C23.906 1.66667 30.3327 8.09334 30.3327 16C30.3327 23.9067 23.906 30.3333 15.9993 30.3333ZM15.9993 3.66667C9.19935 3.66667 3.66602 9.20001 3.66602 16C3.66602 22.8 9.19935 28.3333 15.9993 28.3333C22.7993 28.3333 28.3327 22.8 28.3327 16C28.3327 9.20001 22.7993 3.66667 15.9993 3.66667Z" fill="#444444"/>
  <path d="M12.2271 20.7733C11.9738 20.7733 11.7205 20.68 11.5205 20.48C11.1338 20.0933 11.1338 19.4533 11.5205 19.0667L19.0671 11.52C19.4538 11.1333 20.0938 11.1333 20.4805 11.52C20.8671 11.9067 20.8671 12.5467 20.4805 12.9333L12.9338 20.48C12.7471 20.68 12.4805 20.7733 12.2271 20.7733Z" fill="#444444"/>
  <path d="M19.7738 20.7733C19.5205 20.7733 19.2671 20.68 19.0671 20.48L11.5205 12.9333C11.1338 12.5467 11.1338 11.9067 11.5205 11.52C11.9071 11.1333 12.5471 11.1333 12.9338 11.52L20.4805 19.0667C20.8671 19.4533 20.8671 20.0933 20.4805 20.48C20.2805 20.68 20.0271 20.7733 19.7738 20.7733Z" fill="#444444"/>
</svg>