<svg xmlns="http://www.w3.org/2000/svg" width="16" height="16" viewBox="0 0 16 16" fill="none">
  <path d="M8.66668 9.83337H1.33334C1.06001 9.83337 0.833344 9.60671 0.833344 9.33337V4.00004C0.833344 2.25337 2.25334 0.833374 4.00001 0.833374H10C10.2733 0.833374 10.5 1.06004 10.5 1.33337V8.00004C10.5 9.01337 9.68001 9.83337 8.66668 9.83337ZM1.83334 8.83337H8.66668C9.12668 8.83337 9.50001 8.46004 9.50001 8.00004V1.83337H4.00001C2.80668 1.83337 1.83334 2.80671 1.83334 4.00004V8.83337Z" fill="#0C68F4"/>
  <path d="M12.6667 13.8334H12C11.7267 13.8334 11.5 13.6067 11.5 13.3334C11.5 12.8734 11.1267 12.5 10.6667 12.5C10.2067 12.5 9.83334 12.8734 9.83334 13.3334C9.83334 13.6067 9.60668 13.8334 9.33334 13.8334H6.66668C6.39334 13.8334 6.16668 13.6067 6.16668 13.3334C6.16668 12.8734 5.79334 12.5 5.33334 12.5C4.87334 12.5 4.50001 12.8734 4.50001 13.3334C4.50001 13.6067 4.27334 13.8334 4.00001 13.8334H3.33334C1.95334 13.8334 0.833344 12.7134 0.833344 11.3334V9.33337C0.833344 9.06004 1.06001 8.83337 1.33334 8.83337H8.66668C9.12668 8.83337 9.50001 8.46004 9.50001 8.00004V3.33337C9.50001 3.06004 9.72668 2.83337 10 2.83337H11.2267C11.8867 2.83337 12.4934 3.18672 12.82 3.76005L13.96 5.75338C14.0467 5.90671 14.0467 6.10004 13.96 6.25338C13.8733 6.40671 13.7067 6.50004 13.5267 6.50004H12.6667C12.5733 6.50004 12.5 6.57337 12.5 6.66671V8.66671C12.5 8.76004 12.5733 8.83337 12.6667 8.83337H14.6667C14.94 8.83337 15.1667 9.06004 15.1667 9.33337V11.3334C15.1667 12.7134 14.0467 13.8334 12.6667 13.8334ZM12.4333 12.8334H12.6667C13.4933 12.8334 14.1667 12.16 14.1667 11.3334V9.83337H12.6667C12.0267 9.83337 11.5 9.30671 11.5 8.66671V6.66671C11.5 6.02671 12.02 5.50004 12.6667 5.50004L11.9533 4.25338C11.8067 3.99338 11.5267 3.83337 11.2267 3.83337H10.5V8.00004C10.5 9.01337 9.68001 9.83337 8.66668 9.83337H1.83334V11.3334C1.83334 12.16 2.50668 12.8334 3.33334 12.8334H3.56668C3.78668 12.0667 4.49334 11.5 5.33334 11.5C6.17334 11.5 6.88001 12.0667 7.10001 12.8334H8.90667C9.12667 12.0667 9.83335 11.5 10.6734 11.5C11.5134 11.5 12.2133 12.0667 12.4333 12.8334Z" fill="#0C68F4"/>
  <path d="M5.33333 15.1667C4.32 15.1667 3.5 14.3467 3.5 13.3333C3.5 12.32 4.32 11.5 5.33333 11.5C6.34667 11.5 7.16667 12.32 7.16667 13.3333C7.16667 14.3467 6.34667 15.1667 5.33333 15.1667ZM5.33333 12.5C4.87333 12.5 4.5 12.8733 4.5 13.3333C4.5 13.7933 4.87333 14.1667 5.33333 14.1667C5.79333 14.1667 6.16667 13.7933 6.16667 13.3333C6.16667 12.8733 5.79333 12.5 5.33333 12.5Z" fill="#0C68F4"/>
  <path d="M10.6667 15.1667C9.65334 15.1667 8.83334 14.3467 8.83334 13.3333C8.83334 12.32 9.65334 11.5 10.6667 11.5C11.68 11.5 12.5 12.32 12.5 13.3333C12.5 14.3467 11.68 15.1667 10.6667 15.1667ZM10.6667 12.5C10.2067 12.5 9.83334 12.8733 9.83334 13.3333C9.83334 13.7933 10.2067 14.1667 10.6667 14.1667C11.1267 14.1667 11.5 13.7933 11.5 13.3333C11.5 12.8733 11.1267 12.5 10.6667 12.5Z" fill="#0C68F4"/>
  <path d="M14.6667 9.83333H12.6667C12.0267 9.83333 11.5 9.30667 11.5 8.66667V6.66667C11.5 6.02667 12.0267 5.5 12.6667 5.5H13.5267C13.7067 5.5 13.8733 5.59334 13.96 5.75334L15.1 7.75334C15.14 7.82667 15.1667 7.91333 15.1667 8V9.33333C15.1667 9.60667 14.94 9.83333 14.6667 9.83333ZM12.6667 6.5C12.5733 6.5 12.5 6.57333 12.5 6.66667V8.66667C12.5 8.76 12.5733 8.83333 12.6667 8.83333H14.1667V8.13334L13.2333 6.5H12.6667Z" fill="#0C68F4"/>
</svg>