<svg xmlns="http://www.w3.org/2000/svg" width="24" height="24" viewBox="0 0 24 24" fill="none">
  <path d="M6.17989 22.75C6.07989 22.75 5.96989 22.74 5.87989 22.73L3.70989 22.43C2.66989 22.29 1.72989 21.36 1.56989 20.3L1.26989 18.11C1.16989 17.41 1.46989 16.5 1.96989 15.99L6.35989 11.6C5.64989 8.76005 6.46989 5.76005 8.55989 3.69005C11.7999 0.460045 17.0699 0.450045 20.3199 3.69005C21.8899 5.26005 22.7499 7.35005 22.7499 9.57005C22.7499 11.79 21.8899 13.88 20.3199 15.45C18.2199 17.53 15.2299 18.35 12.4099 17.63L8.00989 22.02C7.58989 22.46 6.83989 22.75 6.17989 22.75ZM14.4299 2.76005C12.6799 2.76005 10.9399 3.42005 9.60989 4.75005C7.80989 6.54005 7.15989 9.16005 7.90989 11.6C7.98989 11.87 7.91989 12.15 7.71989 12.35L3.01989 17.05C2.84989 17.22 2.70989 17.66 2.73989 17.89L3.03989 20.08C3.09989 20.46 3.50989 20.89 3.88989 20.94L6.06989 21.24C6.30989 21.28 6.74989 21.14 6.91989 20.97L11.6399 16.26C11.8399 16.06 12.1299 16 12.3899 16.08C14.7999 16.84 17.4299 16.19 19.2299 14.39C20.5099 13.11 21.2199 11.39 21.2199 9.57005C21.2199 7.74005 20.5099 6.03005 19.2299 4.75005C17.9299 3.43005 16.1799 2.76005 14.4299 2.76005Z" fill="currentColor"/>
  <path d="M9.19008 20.5401C9.00008 20.5401 8.81008 20.4701 8.66008 20.3201L6.36008 18.0201C6.07008 17.7301 6.07008 17.2501 6.36008 16.9601C6.65008 16.6701 7.13008 16.6701 7.42008 16.9601L9.72008 19.2601C10.0101 19.5501 10.0101 20.0301 9.72008 20.3201C9.57008 20.4701 9.38008 20.5401 9.19008 20.5401Z" fill="currentColor"/>
  <path d="M14.5 11.75C13.26 11.75 12.25 10.74 12.25 9.5C12.25 8.26 13.26 7.25 14.5 7.25C15.74 7.25 16.75 8.26 16.75 9.5C16.75 10.74 15.74 11.75 14.5 11.75ZM14.5 8.75C14.09 8.75 13.75 9.09 13.75 9.5C13.75 9.91 14.09 10.25 14.5 10.25C14.91 10.25 15.25 9.91 15.25 9.5C15.25 9.09 14.91 8.75 14.5 8.75Z" fill="currentColor"/>
</svg>