<svg xmlns="http://www.w3.org/2000/svg" width="20" height="20" viewBox="0 0 20 20" fill="none">
  <path d="M10.0001 11.8082C8.22515 11.8082 6.77515 10.3666 6.77515 8.58324C6.77515 6.79991 8.22515 5.36658 10.0001 5.36658C11.7751 5.36658 13.2251 6.80824 13.2251 8.59158C13.2251 10.3749 11.7751 11.8082 10.0001 11.8082ZM10.0001 6.61658C8.91681 6.61658 8.02515 7.49991 8.02515 8.59158C8.02515 9.68324 8.90848 10.5666 10.0001 10.5666C11.0918 10.5666 11.9751 9.68324 11.9751 8.59158C11.9751 7.49991 11.0835 6.61658 10.0001 6.61658Z" fill="currentColor"/>
  <path d="M9.9999 18.9666C8.76657 18.9666 7.5249 18.5 6.55824 17.575C4.0999 15.2083 1.38324 11.4333 2.40824 6.94163C3.33324 2.86663 6.89157 1.04163 9.9999 1.04163C9.9999 1.04163 9.9999 1.04163 10.0082 1.04163C13.1166 1.04163 16.6749 2.86663 17.5999 6.94996C18.6166 11.4416 15.8999 15.2083 13.4416 17.575C12.4749 18.5 11.2332 18.9666 9.9999 18.9666ZM9.9999 2.29163C7.5749 2.29163 4.45824 3.58329 3.63324 7.21663C2.73324 11.1416 5.1999 14.525 7.43324 16.6666C8.8749 18.0583 11.1332 18.0583 12.5749 16.6666C14.7999 14.525 17.2666 11.1416 16.3832 7.21663C15.5499 3.58329 12.4249 2.29163 9.9999 2.29163Z" fill="currentColor"/>
</svg>