<svg xmlns="http://www.w3.org/2000/svg" width="20" height="20" viewBox="0 0 20 20" fill="none">
  <path d="M10.0001 17.7083H5.83341C2.79175 17.7083 1.04175 15.9583 1.04175 12.9166V7.08329C1.04175 4.04163 2.79175 2.29163 5.83341 2.29163H14.1667C17.2084 2.29163 18.9584 4.04163 18.9584 7.08329V9.58329C18.9584 9.92496 18.6751 10.2083 18.3334 10.2083C17.9917 10.2083 17.7084 9.92496 17.7084 9.58329V7.08329C17.7084 4.69996 16.5501 3.54163 14.1667 3.54163H5.83341C3.45008 3.54163 2.29175 4.69996 2.29175 7.08329V12.9166C2.29175 15.3 3.45008 16.4583 5.83341 16.4583H10.0001C10.3417 16.4583 10.6251 16.7416 10.6251 17.0833C10.6251 17.425 10.3417 17.7083 10.0001 17.7083Z" fill="currentColor"/>
  <path d="M9.99973 10.725C9.29973 10.725 8.5914 10.5083 8.04974 10.0666L5.4414 7.9833C5.17473 7.76663 5.12474 7.37497 5.3414 7.10831C5.55807 6.84164 5.94973 6.79998 6.21639 7.00831L8.82473 9.09164C9.45806 9.59998 10.5331 9.59998 11.1664 9.09164L13.7747 7.00831C14.0414 6.79164 14.4331 6.83331 14.6497 7.10831C14.8664 7.37497 14.8247 7.77496 14.5497 7.9833L11.9414 10.0666C11.4081 10.5083 10.6997 10.725 9.99973 10.725Z" fill="currentColor"/>
  <path d="M13.1833 18.15C12.8666 18.15 12.5666 18.0333 12.35 17.8166C12.0916 17.5583 11.975 17.1833 12.0333 16.7916L12.1916 15.6666C12.2333 15.375 12.4083 15.025 12.6166 14.8166L15.5666 11.8666C15.9666 11.4666 16.3583 11.2583 16.7833 11.2166C17.3 11.1666 17.8166 11.3833 18.3 11.8666C18.7833 12.35 19 12.8583 18.95 13.3833C18.9083 13.8 18.6916 14.2 18.3 14.6L15.35 17.55C15.1416 17.7583 14.7916 17.9333 14.5 17.975L13.375 18.1333C13.3083 18.1416 13.25 18.15 13.1833 18.15ZM16.925 12.4583C16.9166 12.4583 16.9083 12.4583 16.9 12.4583C16.7833 12.4666 16.625 12.575 16.45 12.75L13.5 15.7C13.475 15.725 13.4333 15.8083 13.4333 15.8416L13.2833 16.8833L14.325 16.7333C14.3583 16.725 14.4416 16.6833 14.4666 16.6583L17.4166 13.7083C17.5916 13.525 17.7 13.375 17.7083 13.2583C17.725 13.0916 17.5583 12.8916 17.4166 12.75C17.2833 12.6166 17.0916 12.4583 16.925 12.4583Z" fill="currentColor"/>
  <path d="M17.4333 15.2083C17.375 15.2083 17.3167 15.1999 17.2667 15.1833C16.1667 14.8749 15.2917 14 14.9833 12.9C14.8917 12.5666 15.0833 12.2249 15.4167 12.1249C15.75 12.0333 16.0917 12.2249 16.1833 12.5583C16.375 13.2416 16.9167 13.7833 17.6 13.9749C17.9333 14.0666 18.125 14.4166 18.0333 14.75C17.9583 15.025 17.7083 15.2083 17.4333 15.2083Z" fill="currentColor"/>
</svg>