<svg xmlns="http://www.w3.org/2000/svg" width="32" height="24" viewBox="0 0 32 24" fill="none">
  <g style="mix-blend-mode:luminosity">
    <g clip-path="url(#clip0_2734_69759)">
      <path d="M0 0H32V24H0V0Z" fill="white"/>
      <path d="M28.4444 0H3.55556C1.59188 0 0 1.79086 0 4V20C0 22.2091 1.59188 24 3.55556 24H28.4444C30.4081 24 32 22.2091 32 20V4C32 1.79086 30.4081 0 28.4444 0Z" fill="white"/>
      <path d="M28.4441 0.499756H3.5552C1.83698 0.499756 0.444092 2.06676 0.444092 3.99976V19.9998C0.444092 21.9328 1.83698 23.4998 3.5552 23.4998H28.4441C30.1623 23.4998 31.5552 21.9328 31.5552 19.9998V3.99976C31.5552 2.06676 30.1623 0.499756 28.4441 0.499756Z" stroke="#333333" stroke-opacity="0.07" stroke-width="0.970471"/>
      <path d="M7.12246 8.61212C6.90583 8.40214 6.64624 8.24166 6.36157 8.14175C6.07691 8.04183 5.77395 8.00487 5.47362 8.03339H3.28972C3.21339 8.03488 3.13999 8.06296 3.08217 8.1128C3.02435 8.16265 2.98575 8.23111 2.97305 8.30638L2.00122 14.0718C1.99813 14.0995 2.00093 14.1274 2.00941 14.1538C2.01789 14.1803 2.03188 14.2045 2.05046 14.2252C2.06902 14.2458 2.09175 14.2623 2.11714 14.2735C2.14253 14.2848 2.17001 14.2905 2.19777 14.2902H3.28972C3.35504 14.2874 3.41803 14.2651 3.47057 14.2262C3.52311 14.1873 3.5628 14.1335 3.58455 14.0718L3.82477 12.4994C3.83289 12.4242 3.86864 12.3545 3.92512 12.3042C3.98161 12.2538 4.05479 12.226 4.13052 12.2265H4.84029C5.15424 12.2627 5.47231 12.2341 5.77469 12.1422C6.07708 12.0502 6.35733 11.8971 6.59801 11.6923C6.83869 11.4874 7.03466 11.2353 7.17373 10.9515C7.31279 10.6677 7.39197 10.3583 7.40637 10.0426C7.46789 9.79796 7.47433 9.5428 7.42522 9.29543C7.37613 9.04806 7.27272 8.81467 7.12246 8.61212ZM5.73568 10.1299C5.61557 10.938 4.99316 10.938 4.40351 10.938H4.065L4.29431 9.42017C4.30178 9.37572 4.3243 9.33519 4.35809 9.30537C4.39189 9.27556 4.43491 9.25825 4.47994 9.25637H4.63282C5.03684 9.25637 5.42994 9.25637 5.61557 9.48568C5.68354 9.57672 5.72972 9.68215 5.75055 9.79381C5.77137 9.90551 5.76628 10.0205 5.73568 10.1299Z" fill="#253B80"/>
      <path d="M12.2219 10.0965H11.13C11.0855 10.0989 11.0428 10.1148 11.0078 10.1423C10.9726 10.1696 10.9466 10.2069 10.9334 10.2494V10.566L10.857 10.4459C10.6917 10.2796 10.4909 10.1528 10.2696 10.0753C10.0483 9.99779 9.81232 9.97137 9.57941 9.99823C8.982 10.0121 8.40949 10.2403 7.96649 10.6413C7.52346 11.0422 7.2394 11.5891 7.16617 12.1821C7.11094 12.4733 7.11841 12.773 7.18807 13.061C7.25774 13.3491 7.38801 13.619 7.57019 13.8528C7.741 14.0419 7.95284 14.1893 8.18936 14.284C8.42598 14.3787 8.68106 14.4179 8.93516 14.3988C9.21197 14.4017 9.48659 14.3481 9.742 14.2411C9.9973 14.134 10.2281 13.9759 10.4202 13.7764V14.093C10.417 14.1435 10.4335 14.1932 10.466 14.2317C10.4985 14.2704 10.5447 14.295 10.5949 14.3005H11.5668C11.6426 14.304 11.7171 14.2791 11.7756 14.2306C11.8342 14.1822 11.8726 14.1137 11.8834 14.0384L12.4622 10.3149C12.4744 10.2821 12.4766 10.2465 12.4684 10.2125C12.4602 10.1785 12.442 10.1477 12.4161 10.1242C12.3902 10.1008 12.3579 10.0855 12.3233 10.0806C12.2886 10.0756 12.2533 10.0812 12.2219 10.0965ZM9.49205 13.2522C9.35851 13.2597 9.22507 13.238 9.1007 13.1891C8.97622 13.1401 8.86396 13.0647 8.77137 12.9683C8.69155 12.8575 8.63498 12.7317 8.60495 12.5985C8.57493 12.4653 8.57209 12.3274 8.59666 12.193C8.63116 11.8947 8.77333 11.6192 8.99642 11.4182C9.21961 11.2172 9.50832 11.1045 9.80872 11.1011C9.94401 11.095 10.079 11.1192 10.2038 11.1722C10.3285 11.225 10.4398 11.3053 10.5294 11.4068C10.6187 11.5105 10.6821 11.6337 10.7144 11.7666C10.7467 11.8995 10.7469 12.0382 10.715 12.1712C10.6824 12.4714 10.539 12.7485 10.3128 12.9485C10.0865 13.1484 9.79387 13.2567 9.49205 13.2522Z" fill="#253B80"/>
      <path d="M17.9656 10.0966H16.8736C16.8215 10.0959 16.77 10.1087 16.7241 10.1335C16.6783 10.1584 16.6395 10.1946 16.6116 10.2386L15.1156 12.4225L14.4823 10.2932C14.4617 10.2277 14.4212 10.1704 14.3663 10.1294C14.3115 10.0882 14.2451 10.0653 14.1765 10.0638H13.0846C13.0545 10.0637 13.0248 10.0708 12.9981 10.0847C12.9713 10.0986 12.9484 10.1188 12.9313 10.1434C12.914 10.1682 12.9031 10.1967 12.8994 10.2267C12.8957 10.2565 12.8993 10.2868 12.9099 10.315L14.1001 13.8529L13.0081 15.4472C12.9879 15.4751 12.9758 15.5081 12.9732 15.5425C12.9706 15.5768 12.9777 15.6113 12.9935 15.6418C13.0093 15.6724 13.0335 15.6981 13.0631 15.7158C13.0926 15.7335 13.1266 15.7425 13.161 15.742H14.2529C14.3043 15.7449 14.3555 15.7343 14.4015 15.7114C14.4474 15.6884 14.4866 15.6537 14.515 15.6109L18.1184 10.3587C18.1309 10.3317 18.1366 10.302 18.135 10.2723C18.1335 10.2426 18.125 10.2138 18.11 10.188C18.095 10.1623 18.0741 10.1406 18.049 10.1248C18.0238 10.1088 17.9953 10.0992 17.9656 10.0966Z" fill="#253B80"/>
      <path d="M23.2069 8.61171C22.9898 8.40233 22.7302 8.24224 22.4456 8.14237C22.161 8.04249 21.8583 8.00517 21.5581 8.03298H19.2977C19.2231 8.03277 19.1513 8.06081 19.0966 8.11146C19.0419 8.16212 19.0084 8.23161 19.0029 8.30596L18.0747 14.0714C18.0716 14.099 18.0744 14.127 18.0829 14.1534C18.0913 14.1798 18.1054 14.2042 18.124 14.2248C18.1426 14.2454 18.1653 14.2618 18.1906 14.2731C18.216 14.2843 18.2434 14.29 18.2713 14.2898H19.4288C19.4812 14.2875 19.531 14.2663 19.5691 14.2302C19.6072 14.1941 19.631 14.1456 19.6362 14.0932L19.8983 12.4444C19.9086 12.37 19.945 12.3018 20.0011 12.2518C20.057 12.2018 20.1289 12.1734 20.204 12.1714H20.9247C21.2381 12.2045 21.5549 12.1735 21.8559 12.0803C22.157 11.9872 22.436 11.8339 22.6759 11.6297C22.9159 11.4254 23.1119 11.1746 23.252 10.8923C23.392 10.61 23.4732 10.3022 23.4908 9.98752C23.5393 9.751 23.5391 9.50697 23.4903 9.27044C23.4415 9.0339 23.345 8.80978 23.2069 8.61171ZM21.8092 10.1622C21.7 10.9703 21.0776 10.9703 20.477 10.9703H20.1385L20.3788 9.45251C20.3801 9.42954 20.3861 9.40708 20.3961 9.38641C20.4062 9.36575 20.4202 9.34728 20.4375 9.33206C20.4548 9.31683 20.4748 9.30517 20.4966 9.29773C20.5184 9.2903 20.5413 9.28723 20.5644 9.28872H20.7282C21.1322 9.28872 21.5144 9.28872 21.7109 9.51802C21.7703 9.60687 21.8099 9.70754 21.8268 9.81303C21.8438 9.91862 21.8378 10.0265 21.8092 10.1295V10.1622Z" fill="#179BD7"/>
      <path d="M28.2952 10.097H27.2032C27.1578 10.0958 27.1135 10.1105 27.0776 10.1383C27.0418 10.1663 27.0167 10.2056 27.0067 10.2499V10.5666L26.9302 10.4464C26.7675 10.2796 26.5688 10.1524 26.3491 10.0747C26.1294 9.99711 25.8948 9.97112 25.6636 9.99875C25.0662 10.0126 24.4936 10.2408 24.0506 10.6417C23.6076 11.0426 23.3235 11.5896 23.2504 12.1826C23.1891 12.4736 23.1936 12.7746 23.2636 13.0636C23.3335 13.3527 23.4669 13.6224 23.6544 13.8533C23.8224 14.0428 24.0322 14.1907 24.2672 14.2855C24.5021 14.3802 24.7558 14.4192 25.0084 14.3993C25.2868 14.4018 25.5629 14.348 25.8199 14.241C26.0771 14.1341 26.3099 13.9762 26.5044 13.7769V14.0936C26.5012 14.1197 26.5037 14.1462 26.5117 14.1713C26.5195 14.1964 26.5328 14.2196 26.5503 14.2391C26.5679 14.2588 26.5894 14.2744 26.6134 14.2851C26.6376 14.2958 26.6637 14.3011 26.69 14.301H27.6618C27.7359 14.3018 27.8077 14.2756 27.8639 14.2274C27.9202 14.1792 27.957 14.1122 27.9676 14.039L28.5026 10.3154C28.5081 10.2865 28.5066 10.2567 28.4983 10.2285C28.49 10.2002 28.475 10.1744 28.4548 10.153C28.4345 10.1317 28.4095 10.1156 28.3818 10.1058C28.3539 10.096 28.3243 10.093 28.2952 10.097ZM25.5762 13.2528C25.4409 13.2609 25.3056 13.2399 25.1793 13.1908C25.0531 13.1418 24.9388 13.0661 24.8446 12.9688C24.7643 12.8583 24.7083 12.7322 24.68 12.5987C24.6519 12.465 24.6521 12.327 24.6808 12.1936C24.7105 11.8952 24.8497 11.6184 25.0715 11.4168C25.2934 11.2151 25.5821 11.1028 25.882 11.1016C26.021 11.0894 26.1608 11.111 26.2896 11.1647C26.4184 11.2185 26.5322 11.3026 26.6213 11.41C26.7104 11.5173 26.7722 11.6447 26.8013 11.7812C26.8303 11.9176 26.8258 12.0591 26.7883 12.1936C26.7555 12.4898 26.6128 12.763 26.3884 12.9591C26.164 13.1552 25.8741 13.26 25.5762 13.2528Z" fill="#179BD7"/>
      <path d="M30.7959 8.00043H29.7039C29.6593 7.9973 29.6152 8.0114 29.5806 8.03985C29.546 8.06829 29.5238 8.1089 29.5183 8.1533L28.6447 14.0717C28.6399 14.0987 28.6411 14.1264 28.6482 14.1528C28.6553 14.1792 28.6682 14.2038 28.686 14.2247C28.7037 14.2455 28.7259 14.2622 28.7509 14.2736C28.7758 14.2848 28.803 14.2905 28.8304 14.2901H29.7585C29.8326 14.2908 29.9044 14.2646 29.9606 14.2165C30.0169 14.1682 30.0537 14.1013 30.0643 14.028L30.9815 8.2079C30.9846 8.18176 30.9821 8.15525 30.9742 8.13014C30.9662 8.10504 30.953 8.0819 30.9355 8.06228C30.918 8.04265 30.8964 8.027 30.8723 8.01634C30.8483 8.00567 30.8222 8.00025 30.7959 8.00043Z" fill="#179BD7"/>
    </g>
  </g>
  <defs>
    <clipPath id="clip0_2734_69759">
      <rect width="32" height="24" rx="4" fill="white"/>
    </clipPath>
  </defs>
</svg>