<svg xmlns="http://www.w3.org/2000/svg" width="20" height="21" viewBox="0 0 20 21" fill="none">
  <path d="M14.5417 19.4583C13.6001 19.4583 12.6084 19.2333 11.5834 18.8C10.5834 18.375 9.57508 17.7916 8.59175 17.0833C7.61675 16.3666 6.67508 15.5666 5.78341 14.6916C4.90008 13.8 4.10008 12.8583 3.39175 11.8916C2.67508 10.8916 2.10008 9.89163 1.69175 8.92496C1.25841 7.89163 1.04175 6.89163 1.04175 5.94996C1.04175 5.29996 1.15841 4.68329 1.38341 4.10829C1.61675 3.51663 1.99175 2.96663 2.50008 2.49163C3.14175 1.85829 3.87508 1.54163 4.65841 1.54163C4.98341 1.54163 5.31675 1.61663 5.60008 1.74996C5.92508 1.89996 6.20008 2.12496 6.40008 2.42496L8.33341 5.14996C8.50841 5.39163 8.64175 5.62496 8.73341 5.85829C8.84175 6.10829 8.90008 6.35829 8.90008 6.59996C8.90008 6.91663 8.80841 7.22496 8.63341 7.51663C8.50841 7.74163 8.31675 7.98329 8.07508 8.22496L7.50841 8.81663C7.51675 8.84163 7.52508 8.85829 7.53341 8.87496C7.63341 9.04996 7.83341 9.34996 8.21675 9.79996C8.62508 10.2666 9.00841 10.6916 9.39175 11.0833C9.88341 11.5666 10.2917 11.95 10.6751 12.2666C11.1501 12.6666 11.4584 12.8666 11.6417 12.9583L11.6251 13L12.2334 12.4C12.4917 12.1416 12.7417 11.95 12.9834 11.825C13.4417 11.5416 14.0251 11.4916 14.6084 11.7333C14.8251 11.825 15.0584 11.95 15.3084 12.125L18.0751 14.0916C18.3834 14.3 18.6084 14.5666 18.7417 14.8833C18.8667 15.2 18.9251 15.4916 18.9251 15.7833C18.9251 16.1833 18.8334 16.5833 18.6584 16.9583C18.4834 17.3333 18.2667 17.6583 17.9917 17.9583C17.5167 18.4833 17.0001 18.8583 16.4001 19.1C15.8251 19.3333 15.2001 19.4583 14.5417 19.4583ZM4.65841 2.79163C4.20008 2.79163 3.77508 2.99163 3.36675 3.39163C2.98341 3.74996 2.71675 4.14163 2.55008 4.56663C2.37508 4.99996 2.29175 5.45829 2.29175 5.94996C2.29175 6.72496 2.47508 7.56663 2.84175 8.43329C3.21675 9.31663 3.74175 10.2333 4.40841 11.15C5.07508 12.0666 5.83341 12.9583 6.66675 13.8C7.50008 14.625 8.40008 15.3916 9.32508 16.0666C10.2251 16.725 11.1501 17.2583 12.0667 17.6416C13.4917 18.25 14.8251 18.3916 15.9251 17.9333C16.3501 17.7583 16.7251 17.4916 17.0667 17.1083C17.2584 16.9 17.4084 16.675 17.5334 16.4083C17.6334 16.2 17.6834 15.9833 17.6834 15.7666C17.6834 15.6333 17.6584 15.5 17.5917 15.35C17.5667 15.3 17.5167 15.2083 17.3584 15.1L14.5917 13.1333C14.4251 13.0166 14.2751 12.9333 14.1334 12.875C13.9501 12.8 13.8751 12.725 13.5917 12.9C13.4251 12.9833 13.2751 13.1083 13.1084 13.275L12.4751 13.9C12.1501 14.2166 11.6501 14.2916 11.2667 14.15L11.0417 14.05C10.7001 13.8666 10.3001 13.5833 9.85841 13.2083C9.45841 12.8666 9.02508 12.4666 8.50008 11.95C8.09175 11.5333 7.68341 11.0916 7.25841 10.6C6.86675 10.1416 6.58341 9.74996 6.40841 9.42496L6.30841 9.17496C6.25841 8.98329 6.24175 8.87496 6.24175 8.75829C6.24175 8.45829 6.35008 8.19163 6.55841 7.98329L7.18341 7.33329C7.35008 7.16663 7.47508 7.00829 7.55841 6.86663C7.62508 6.75829 7.65008 6.66663 7.65008 6.58329C7.65008 6.51663 7.62508 6.41663 7.58341 6.31663C7.52508 6.18329 7.43341 6.03329 7.31675 5.87496L5.38341 3.14163C5.30008 3.02496 5.20008 2.94163 5.07508 2.88329C4.94175 2.82496 4.80008 2.79163 4.65841 2.79163ZM11.6251 13.0083L11.4917 13.575L11.7167 12.9916C11.6751 12.9833 11.6417 12.9916 11.6251 13.0083Z" fill="currentColor"/>
  <path d="M15.4167 8.62504C15.075 8.62504 14.7917 8.34171 14.7917 8.00004C14.7917 7.70004 14.4917 7.07504 13.9917 6.54171C13.5 6.01671 12.9583 5.70837 12.5 5.70837C12.1583 5.70837 11.875 5.42504 11.875 5.08337C11.875 4.74171 12.1583 4.45837 12.5 4.45837C13.3083 4.45837 14.1583 4.89171 14.9 5.68337C15.5917 6.42504 16.0417 7.33337 16.0417 8.00004C16.0417 8.34171 15.7583 8.62504 15.4167 8.62504Z" fill="currentColor"/>
  <path d="M18.3333 8.62496C17.9917 8.62496 17.7083 8.34163 17.7083 7.99996C17.7083 5.12496 15.375 2.79163 12.5 2.79163C12.1583 2.79163 11.875 2.50829 11.875 2.16663C11.875 1.82496 12.1583 1.54163 12.5 1.54163C16.0583 1.54163 18.9583 4.44163 18.9583 7.99996C18.9583 8.34163 18.675 8.62496 18.3333 8.62496Z" fill="currentColor"/>
</svg>