<svg xmlns="http://www.w3.org/2000/svg" width="32" height="32" viewBox="0 0 32 32" fill="none">
  <path d="M17.3337 19.6666H2.66699C2.12033 19.6666 1.66699 19.2133 1.66699 18.6666V7.99996C1.66699 4.50663 4.50699 1.66663 8.00033 1.66663H20.0003C20.547 1.66663 21.0003 2.11996 21.0003 2.66663V16C21.0003 18.0266 19.3603 19.6666 17.3337 19.6666ZM3.66699 17.6666H17.3337C18.2537 17.6666 19.0003 16.92 19.0003 16V3.66663H8.00033C5.61366 3.66663 3.66699 5.61329 3.66699 7.99996V17.6666Z" fill="currentColor"/>
  <path d="M25.3337 27.6666H24.0003C23.4537 27.6666 23.0003 27.2133 23.0003 26.6666C23.0003 25.7466 22.2537 25 21.3337 25C20.4137 25 19.667 25.7466 19.667 26.6666C19.667 27.2133 19.2137 27.6666 18.667 27.6666H13.3337C12.787 27.6666 12.3337 27.2133 12.3337 26.6666C12.3337 25.7466 11.587 25 10.667 25C9.74699 25 9.00033 25.7466 9.00033 26.6666C9.00033 27.2133 8.54699 27.6666 8.00033 27.6666H6.66699C3.90699 27.6666 1.66699 25.4266 1.66699 22.6666V18.6666C1.66699 18.12 2.12033 17.6666 2.66699 17.6666H17.3337C18.2537 17.6666 19.0003 16.92 19.0003 16V6.66663C19.0003 6.11996 19.4537 5.66663 20.0003 5.66663H22.4537C23.7737 5.66663 24.987 6.37331 25.6403 7.51998L27.9203 11.5066C28.0937 11.8133 28.0937 12.2 27.9203 12.5066C27.747 12.8133 27.4137 13 27.0537 13H25.3337C25.147 13 25.0003 13.1466 25.0003 13.3333V17.3333C25.0003 17.52 25.147 17.6666 25.3337 17.6666H29.3337C29.8803 17.6666 30.3337 18.12 30.3337 18.6666V22.6666C30.3337 25.4266 28.0937 27.6666 25.3337 27.6666ZM24.867 25.6666H25.3337C26.987 25.6666 28.3337 24.32 28.3337 22.6666V19.6666H25.3337C24.0537 19.6666 23.0003 18.6133 23.0003 17.3333V13.3333C23.0003 12.0533 24.0403 11 25.3337 11L23.907 8.50663C23.6136 7.98663 23.0537 7.66663 22.4537 7.66663H21.0003V16C21.0003 18.0266 19.3603 19.6666 17.3337 19.6666H3.66699V22.6666C3.66699 24.32 5.01366 25.6666 6.66699 25.6666H7.13367C7.57367 24.1333 8.98699 23 10.667 23C12.347 23 13.7603 24.1333 14.2003 25.6666H17.8136C18.2536 24.1333 19.667 23 21.347 23C23.027 23 24.427 24.1333 24.867 25.6666Z" fill="currentColor"/>
  <path d="M10.6667 30.3333C8.64 30.3333 7 28.6933 7 26.6667C7 24.64 8.64 23 10.6667 23C12.6933 23 14.3333 24.64 14.3333 26.6667C14.3333 28.6933 12.6933 30.3333 10.6667 30.3333ZM10.6667 25C9.74667 25 9 25.7467 9 26.6667C9 27.5867 9.74667 28.3333 10.6667 28.3333C11.5867 28.3333 12.3333 27.5867 12.3333 26.6667C12.3333 25.7467 11.5867 25 10.6667 25Z" fill="currentColor"/>
  <path d="M21.3337 30.3333C19.307 30.3333 17.667 28.6933 17.667 26.6667C17.667 24.64 19.307 23 21.3337 23C23.3603 23 25.0003 24.64 25.0003 26.6667C25.0003 28.6933 23.3603 30.3333 21.3337 30.3333ZM21.3337 25C20.4137 25 19.667 25.7467 19.667 26.6667C19.667 27.5867 20.4137 28.3333 21.3337 28.3333C22.2537 28.3333 23.0003 27.5867 23.0003 26.6667C23.0003 25.7467 22.2537 25 21.3337 25Z" fill="currentColor"/>
  <path d="M29.3333 19.6667H25.3333C24.0533 19.6667 23 18.6133 23 17.3333V13.3333C23 12.0533 24.0533 11 25.3333 11H27.0533C27.4133 11 27.7467 11.1867 27.92 11.5067L30.2 15.5067C30.28 15.6533 30.3333 15.8267 30.3333 16V18.6667C30.3333 19.2133 29.88 19.6667 29.3333 19.6667ZM25.3333 13C25.1467 13 25 13.1467 25 13.3333V17.3333C25 17.52 25.1467 17.6667 25.3333 17.6667H28.3333V16.2667L26.4667 13H25.3333Z" fill="currentColor"/>
</svg>