<svg width="47" height="57" viewBox="0 0 47 57" fill="none" xmlns="http://www.w3.org/2000/svg">
<path d="M45.2043 19.4954C43.3633 20.6226 41.8384 22.1983 40.7723 24.0753C39.7061 25.9522 39.1336 28.069 39.1083 30.2275C39.1156 32.6568 39.8353 35.0306 41.1784 37.055C42.5215 39.0793 44.4289 40.6652 46.6644 41.6162C45.783 44.4599 44.4786 47.1547 42.795 49.6101C40.386 53.078 37.867 56.5456 34.0344 56.5456C30.2018 56.5456 29.216 54.3189 24.7992 54.3189C20.4919 54.3189 18.9587 56.6187 15.4544 56.6187C11.9501 56.6187 9.50466 53.4064 6.6938 49.4642C2.98086 43.9416 0.940278 37.4649 0.816895 30.8113C0.816895 19.8605 7.93506 14.0568 14.9433 14.0568C18.6667 14.0568 21.7695 16.5022 24.1057 16.5022C26.3324 16.5022 29.8003 13.9105 34.0344 13.9105C36.2114 13.8543 38.3689 14.3343 40.3167 15.3082C42.2646 16.2822 43.943 17.7201 45.2043 19.4954ZM32.0269 9.27483C33.8934 7.07916 34.95 4.30953 35.0201 1.4286C35.0233 1.0488 34.9866 0.66973 34.9106 0.297607C31.7044 0.610798 28.7396 2.13891 26.6243 4.5685C24.7398 6.67668 23.6434 9.37235 23.5215 12.1974C23.5229 12.5409 23.5596 12.8835 23.6311 13.2195C23.8838 13.2673 24.1404 13.2918 24.3977 13.2927C25.8753 13.1751 27.3136 12.7583 28.6251 12.0676C29.9366 11.3769 31.094 10.4267 32.0269 9.27483Z" fill="#0C0C0C"/>
</svg>
