<svg xmlns="http://www.w3.org/2000/svg" width="51" height="14" viewBox="0 0 51 14" fill="none">
  <path d="M9.24173 1.35354C8.86939 1.00357 8.42322 0.736097 7.93394 0.569575C7.44468 0.403053 6.92397 0.341449 6.40778 0.388985H2.65421C2.52302 0.39146 2.39686 0.43827 2.29749 0.52133C2.19811 0.60441 2.13176 0.718517 2.10994 0.843964L0.439598 10.4531C0.434286 10.4991 0.439091 10.5457 0.453674 10.5897C0.468256 10.6338 0.492298 10.6742 0.524222 10.7086C0.556128 10.743 0.595202 10.7705 0.638838 10.7892C0.682473 10.808 0.729711 10.8174 0.777419 10.8171H2.65421C2.76647 10.8123 2.87475 10.7752 2.96504 10.7104C3.05535 10.6454 3.12357 10.5559 3.16094 10.4531L3.57383 7.8324C3.58778 7.70701 3.64922 7.5909 3.74631 7.507C3.84339 7.42292 3.96918 7.37669 4.09933 7.37742H5.31924C5.85886 7.43784 6.40553 7.39016 6.92525 7.23692C7.44499 7.08368 7.92666 6.82853 8.34032 6.48712C8.75401 6.1457 9.09082 5.72548 9.32984 5.25249C9.56885 4.77949 9.70496 4.26391 9.72969 3.73759C9.83543 3.32993 9.8465 2.90467 9.7621 2.49239C9.67772 2.0801 9.49999 1.69112 9.24173 1.35354ZM6.85821 3.88318C6.65176 5.22992 5.58199 5.22992 4.56853 5.22992H3.98672L4.38085 2.70028C4.39369 2.62621 4.43239 2.55865 4.49047 2.50895C4.54856 2.45927 4.6225 2.43042 4.6999 2.42729H4.96265C5.65706 2.42729 6.33271 2.42729 6.65176 2.80947C6.76859 2.9612 6.84796 3.13691 6.88375 3.32301C6.91954 3.50919 6.91079 3.70083 6.85821 3.88318Z" fill="#253B80"/>
  <path d="M18.0063 3.82763H16.1295C16.0531 3.83163 15.9797 3.8582 15.9195 3.90388C15.859 3.94938 15.8144 4.01162 15.7917 4.08242V4.61019L15.6603 4.41C15.3761 4.13283 15.031 3.92153 14.6508 3.79232C14.2703 3.66311 13.8648 3.61907 13.4644 3.66384C12.4377 3.68695 11.4537 4.06731 10.6922 4.73558C9.93078 5.40385 9.44255 6.31527 9.3167 7.30366C9.22177 7.78903 9.2346 8.28842 9.35434 8.76851C9.47408 9.2486 9.69798 9.69849 10.0111 10.0881C10.3047 10.4033 10.6688 10.649 11.0753 10.8068C11.482 10.9646 11.9204 11.0299 12.3571 10.9981C12.8329 11.003 13.3049 10.9136 13.7439 10.7353C14.1827 10.5568 14.5794 10.2932 14.9096 9.96074V10.4885C14.9041 10.5726 14.9325 10.6554 14.9882 10.7196C15.0441 10.7841 15.1235 10.8252 15.2099 10.8343H16.8802C17.0106 10.8401 17.1386 10.7986 17.2392 10.7178C17.3398 10.6372 17.4059 10.5229 17.4245 10.3975L18.4192 4.19161C18.4402 4.13701 18.4439 4.07768 18.4299 4.0209C18.4158 3.9643 18.3844 3.91298 18.34 3.87385C18.2955 3.83472 18.2399 3.80925 18.1804 3.80106C18.1209 3.79287 18.0601 3.80215 18.0063 3.82763ZM13.3143 9.08718C13.0848 9.09955 12.8554 9.06352 12.6417 8.98199C12.4277 8.90027 12.2348 8.7747 12.0756 8.614C11.9384 8.42928 11.8412 8.21963 11.7896 7.9976C11.738 7.77557 11.7331 7.54571 11.7753 7.32186C11.8346 6.82466 12.079 6.3655 12.4624 6.03045C12.846 5.69541 13.3423 5.50759 13.8586 5.50195C14.0911 5.49176 14.3231 5.53216 14.5376 5.62043C14.7519 5.70851 14.9432 5.84227 15.0973 6.01152C15.2508 6.18423 15.3596 6.3897 15.4152 6.61119C15.4707 6.83267 15.4711 7.0638 15.4163 7.28546C15.3602 7.78576 15.1138 8.24765 14.7249 8.58088C14.336 8.9141 13.833 9.09464 13.3143 9.08718Z" fill="#253B80"/>
  <path d="M27.8779 3.82779H26.0012C25.9116 3.8267 25.8231 3.84799 25.7442 3.88931C25.6654 3.9308 25.5988 3.99104 25.5507 4.06438L22.9795 7.70421L21.891 4.15538C21.8557 4.04636 21.7861 3.95082 21.6917 3.88239C21.5975 3.81378 21.4834 3.77556 21.3655 3.7732H19.4887C19.4371 3.77301 19.3861 3.78484 19.3401 3.80796C19.2941 3.83107 19.2547 3.86474 19.2252 3.90587C19.1956 3.94718 19.1768 3.99468 19.1704 4.04455C19.164 4.09423 19.1702 4.14482 19.1884 4.19178L21.2341 10.0883L19.3573 12.7454C19.3226 12.792 19.3018 12.8469 19.2973 12.9043C19.2928 12.9614 19.305 13.0189 19.3322 13.0699C19.3594 13.1208 19.4009 13.1636 19.4517 13.1931C19.5026 13.2226 19.561 13.2377 19.6201 13.2367H21.4969C21.5851 13.2417 21.6731 13.224 21.7521 13.1858C21.8311 13.1474 21.8985 13.0897 21.9473 13.0184L28.1407 4.26457C28.1621 4.21962 28.1718 4.17012 28.1692 4.12062C28.1666 4.07112 28.152 4.02307 28.1262 3.98012C28.1003 3.93735 28.0645 3.90114 28.0213 3.87475C27.978 3.84818 27.929 3.83216 27.8779 3.82779Z" fill="#253B80"/>
  <path d="M36.8875 1.35285C36.5144 1.00388 36.0681 0.73706 35.579 0.570611C35.0899 0.404143 34.5697 0.341957 34.0536 0.388292H30.1686C30.0404 0.387947 29.9169 0.434681 29.8229 0.519107C29.7289 0.603532 29.6713 0.719353 29.6619 0.843271L28.0666 10.4523C28.0612 10.4984 28.0661 10.545 28.0807 10.589C28.0951 10.6331 28.1194 10.6736 28.1513 10.708C28.1832 10.7423 28.2222 10.7697 28.2657 10.7885C28.3095 10.8072 28.3566 10.8167 28.4044 10.8163H30.3938C30.4839 10.8125 30.5695 10.7772 30.635 10.717C30.7005 10.6569 30.7414 10.5759 30.7504 10.4887L31.2008 7.74067C31.2185 7.61674 31.2812 7.50299 31.3775 7.41964C31.4735 7.33629 31.5972 7.28897 31.7263 7.28569H32.965C33.5037 7.34084 34.0481 7.28915 34.5656 7.13391C35.083 6.97868 35.5625 6.72316 35.9748 6.38283C36.3873 6.04233 36.7242 5.62429 36.965 5.15385C37.2056 4.6834 37.3453 4.17036 37.3755 3.64587C37.4588 3.25167 37.4584 2.84496 37.3745 2.45073C37.2906 2.0565 37.1249 1.68296 36.8875 1.35285ZM34.4852 3.93705C34.2975 5.28379 33.2278 5.28379 32.1955 5.28379H31.6137L32.0266 2.75418C32.0289 2.71591 32.0392 2.67847 32.0565 2.64402C32.0737 2.60959 32.098 2.57879 32.1276 2.55343C32.1573 2.52806 32.1918 2.50862 32.2291 2.49622C32.2667 2.48383 32.3061 2.47872 32.3457 2.48119H32.6272C33.3216 2.48119 33.9785 2.48119 34.3163 2.86337C34.4184 3.01144 34.4864 3.17924 34.5154 3.35504C34.5447 3.53103 34.5344 3.71084 34.4852 3.88245V3.93705Z" fill="#179BD7"/>
  <path d="M45.6331 3.82849H43.7563C43.6782 3.82649 43.602 3.85088 43.5404 3.89729C43.4789 3.94388 43.4357 4.00939 43.4184 4.08328V4.61106L43.2871 4.41087C43.0074 4.13278 42.6659 3.92076 42.2882 3.79137C41.9106 3.66197 41.5075 3.61866 41.11 3.6647C40.0832 3.68781 39.0992 4.06817 38.3378 4.73627C37.5764 5.40454 37.088 6.31613 36.9623 7.30453C36.857 7.78954 36.8647 8.2911 36.985 8.77284C37.1051 9.25457 37.3345 9.70409 37.6567 10.089C37.9455 10.4048 38.3061 10.6514 38.71 10.8093C39.1137 10.9671 39.5498 11.0321 39.9839 10.999C40.4625 11.0031 40.937 10.9134 41.3788 10.7351C41.8207 10.5569 42.2209 10.2937 42.5551 9.9616V10.4894C42.5497 10.5329 42.554 10.5771 42.5677 10.619C42.5812 10.6608 42.6039 10.6994 42.6341 10.732C42.6644 10.7647 42.7013 10.7908 42.7426 10.8086C42.7841 10.8264 42.8289 10.8353 42.8742 10.8352H44.5445C44.6718 10.8364 44.7953 10.7928 44.8919 10.7125C44.9886 10.6321 45.0518 10.5205 45.07 10.3984L45.9896 4.19248C45.999 4.14425 45.9964 4.09456 45.9821 4.04761C45.9679 4.00047 45.9422 3.95753 45.9074 3.92186C45.8725 3.88637 45.8295 3.85943 45.7819 3.84305C45.734 3.82685 45.6832 3.82176 45.6331 3.82849ZM40.9599 9.08804C40.7273 9.10169 40.4948 9.06657 40.2776 8.98486C40.0607 8.90314 39.8644 8.77702 39.7024 8.61487C39.5645 8.43069 39.4682 8.22049 39.4196 7.99792C39.3712 7.77516 39.3715 7.54512 39.4209 7.32273C39.4719 6.82553 39.7112 6.36418 40.0924 6.02804C40.4738 5.6919 40.97 5.50482 41.4854 5.50281C41.7243 5.48243 41.9647 5.51846 42.186 5.608C42.4074 5.69754 42.603 5.83786 42.7561 6.01676C42.9093 6.19565 43.0155 6.40804 43.0654 6.63553C43.1153 6.86284 43.1076 7.0987 43.0431 7.32273C42.9868 7.81647 42.7415 8.27181 42.3558 8.59867C41.9701 8.92553 41.4718 9.10006 40.9599 9.08804Z" fill="#179BD7"/>
  <path d="M49.9308 0.33409H48.054C47.9772 0.328867 47.9014 0.352381 47.8421 0.399789C47.7826 0.447198 47.7443 0.514881 47.7349 0.588878L46.2335 10.4529C46.2252 10.4978 46.2273 10.544 46.2395 10.5881C46.2517 10.6321 46.2738 10.6731 46.3044 10.7078C46.3348 10.7426 46.3729 10.7704 46.4159 10.7894C46.4587 10.8081 46.5054 10.8176 46.5525 10.8168H48.1478C48.2751 10.8181 48.3985 10.7744 48.4952 10.6942C48.5919 10.6137 48.6551 10.5022 48.6733 10.3801L50.2498 0.679874C50.2551 0.636306 50.2507 0.592117 50.2372 0.550277C50.2235 0.508437 50.2008 0.469873 50.1708 0.437169C50.1406 0.404465 50.1036 0.378369 50.0621 0.360606C50.0208 0.342826 49.976 0.333799 49.9308 0.33409Z" fill="#179BD7"/>
</svg>